<?xml version="1.0" standalone="no"?>
<!DOCTYPE svg PUBLIC "-//W3C//DTD SVG 20010904//EN"
 "http://www.w3.org/TR/2001/REC-SVG-20010904/DTD/svg10.dtd">
<svg version="1.0" xmlns="http://www.w3.org/2000/svg"
 width="48.000000pt" height="48.000000pt" viewBox="0 0 48.000000 48.000000"
 preserveAspectRatio="xMidYMid meet">

<g transform="translate(0.000000,48.000000) scale(0.100000,-0.100000)"
fill="#000000" stroke="none">
<path d="M40 430 c-18 -18 -20 -33 -20 -130 l0 -109 45 -46 c45 -44 47 -45
110 -45 50 0 65 3 65 15 0 11 -16 15 -67 17 l-68 3 0 115 0 115 28 3 c35 4 37
32 2 32 -49 0 -65 -31 -65 -127 0 -60 -3 -84 -10 -77 -7 7 -10 52 -8 115 l3
104 139 3 c86 2 143 -1 150 -8 7 -7 -17 -10 -77 -10 -70 0 -87 -3 -87 -15 0
-11 21 -15 108 -17 l107 -3 3 -66 3 -66 -29 5 c-71 10 -134 -64 -116 -135 10
-41 60 -83 100 -83 34 0 74 18 80 35 10 24 -2 29 -28 11 -73 -51 -164 38 -113
111 36 51 114 36 139 -28 9 -22 21 -37 26 -34 16 10 12 37 -10 73 -15 24 -20
50 -20 102 0 69 0 70 -45 115 l-46 45 -139 0 c-127 0 -142 -2 -160 -20z"/>
<path d="M110 300 c0 -5 32 -26 70 -45 l70 -35 70 35 c67 34 88 55 54 55 -9 0
-40 -14 -70 -30 l-53 -31 -54 31 c-54 30 -87 38 -87 20z"/>
<path d="M345 160 c-3 -11 -13 -20 -21 -20 -19 0 -18 -5 11 -34 l25 -25 25 25
c29 29 30 34 11 34 -8 0 -18 9 -21 20 -3 11 -10 20 -15 20 -5 0 -12 -9 -15
-20z"/>
</g>
</svg>
